<svg xmlns="http://www.w3.org/2000/svg" xmlns:xlink="http://www.w3.org/1999/xlink" width="500" zoomAndPan="magnify" viewBox="0 0 375 374.999991" height="500" preserveAspectRatio="xMidYMid meet" version="1.0"><defs><g/><clipPath id="8de665466d"><path d="M 177.203125 103.042969 L 197.796875 103.042969 L 197.796875 132.429688 L 177.203125 132.429688 Z M 177.203125 103.042969 " clip-rule="nonzero"/></clipPath><clipPath id="a322b2c6bc"><path d="M 177.203125 177.714844 L 197.796875 177.714844 L 197.796875 207.101562 L 177.203125 207.101562 Z M 177.203125 177.714844 " clip-rule="nonzero"/></clipPath></defs><g fill="#737373" fill-opacity="1"><g transform="translate(146.020072, 194.572437)"><g><path d="M 85.40625 3.25 C 83.769531 8.914062 81.421875 13.164062 78.359375 16 C 74.703125 19.363281 69.664062 21.046875 63.25 21.046875 C 59.8125 21.046875 56.453125 20.519531 53.171875 19.46875 C 49.890625 18.425781 45.75 16.785156 40.75 14.546875 C 35.226562 12.160156 30.710938 10.367188 27.203125 9.171875 L 24.515625 8.390625 C 21.304688 9.515625 18.207031 10.078125 15.21875 10.078125 C 11.789062 10.078125 10.078125 9.328125 10.078125 7.828125 C 10.078125 6.265625 12.09375 5.484375 16.125 5.484375 C 18.726562 5.484375 21.523438 5.78125 24.515625 6.375 C 26.898438 5.707031 29.660156 4.664062 32.796875 3.25 C 34.734375 2.351562 36.1875 1.71875 37.15625 1.34375 C 30.820312 0.75 25.320312 -1.222656 20.65625 -4.578125 C 15.988281 -7.941406 12.367188 -12.550781 9.796875 -18.40625 C 7.222656 -24.269531 5.9375 -31.117188 5.9375 -38.953125 C 5.9375 -47.160156 7.445312 -54.4375 10.46875 -60.78125 C 13.488281 -67.125 17.703125 -72.046875 23.109375 -75.546875 C 28.523438 -79.054688 34.664062 -80.8125 41.53125 -80.8125 C 48.613281 -80.8125 54.820312 -79.207031 60.15625 -76 C 65.5 -72.789062 69.644531 -68.144531 72.59375 -62.0625 C 75.539062 -55.988281 77.015625 -48.734375 77.015625 -40.296875 C 77.015625 -32.535156 75.671875 -25.613281 72.984375 -19.53125 C 70.296875 -13.445312 66.523438 -8.59375 61.671875 -4.96875 C 56.828125 -1.351562 51.269531 0.75 45 1.34375 L 45 1.453125 C 43.207031 1.679688 41.65625 2 40.34375 2.40625 C 39.039062 2.8125 37.304688 3.460938 35.140625 4.359375 C 32.460938 5.554688 30.226562 6.414062 28.4375 6.9375 C 36.71875 8.582031 43.75 9.890625 49.53125 10.859375 C 55.3125 11.828125 60.109375 12.3125 63.921875 12.3125 C 69.210938 12.3125 73.40625 11.546875 76.5 10.015625 C 79.601562 8.484375 82.015625 6.003906 83.734375 2.578125 Z M 17.125 -39.40625 C 17.125 -31.644531 18.222656 -24.816406 20.421875 -18.921875 C 22.628906 -13.023438 25.597656 -8.472656 29.328125 -5.265625 C 33.054688 -2.054688 37.234375 -0.453125 41.859375 -0.453125 C 46.640625 -0.453125 50.835938 -2.109375 54.453125 -5.421875 C 58.078125 -8.742188 60.875 -13.390625 62.84375 -19.359375 C 64.820312 -25.328125 65.8125 -32.15625 65.8125 -39.84375 C 65.8125 -47.601562 64.710938 -54.429688 62.515625 -60.328125 C 60.316406 -66.222656 57.347656 -70.773438 53.609375 -73.984375 C 49.878906 -77.191406 45.703125 -78.796875 41.078125 -78.796875 C 36.304688 -78.796875 32.109375 -77.132812 28.484375 -73.8125 C 24.867188 -70.5 22.070312 -65.859375 20.09375 -59.890625 C 18.113281 -53.921875 17.125 -47.09375 17.125 -39.40625 Z M 17.125 -39.40625 "/></g></g></g><g clip-path="url(#8de665466d)"><path fill="#ffffff" d="M 177.203125 103.042969 L 197.796875 103.042969 L 197.796875 132.402344 L 177.203125 132.402344 Z M 177.203125 103.042969 " fill-opacity="1" fill-rule="nonzero"/></g><g clip-path="url(#a322b2c6bc)"><path fill="#ffffff" d="M 177.203125 177.714844 L 197.796875 177.714844 L 197.796875 207.074219 L 177.203125 207.074219 Z M 177.203125 177.714844 " fill-opacity="1" fill-rule="nonzero"/></g><g fill="#004aad" fill-opacity="1"><g transform="translate(162.699822, 199.432707)"><g><path d="M -3.046875 25.703125 C 4.054688 25.492188 9.304688 22.851562 12.703125 17.78125 C 16.097656 12.71875 17.796875 4.15625 17.796875 -7.90625 L 17.796875 -91.546875 C 17.796875 -95.398438 17.488281 -98.1875 16.875 -99.90625 C 16.269531 -101.632812 15.128906 -102.800781 13.453125 -103.40625 C 11.785156 -104.019531 9.125 -104.425781 5.46875 -104.625 L 5.46875 -107.671875 C 9.726562 -107.367188 16.117188 -107.21875 24.640625 -107.21875 C 32.953125 -107.21875 39.488281 -107.367188 44.25 -107.671875 L 44.25 -104.625 C 40.601562 -104.425781 37.941406 -104.019531 36.265625 -103.40625 C 34.597656 -102.800781 33.457031 -101.632812 32.84375 -99.90625 C 32.238281 -98.1875 31.9375 -95.398438 31.9375 -91.546875 L 31.9375 -35.890625 C 31.9375 -27.273438 31.785156 -19.644531 31.484375 -13 C 31.179688 -6.363281 30.46875 -0.765625 29.34375 3.796875 C 27.519531 11.203125 23.796875 17.1875 18.171875 21.75 C 12.546875 26.3125 5.472656 28.59375 -3.046875 28.59375 Z M -3.046875 25.703125 "/></g></g></g><g fill="#004aad" fill-opacity="1"><g transform="translate(108.832548, 250.349794)"><g><path d="M 8.8125 -15.09375 L 10.734375 -15.09375 L 10.734375 -4.8125 C 10.734375 -3.75 10.507812 -2.835938 10.0625 -2.078125 C 9.625 -1.328125 9.015625 -0.753906 8.234375 -0.359375 C 7.460938 0.0234375 6.578125 0.21875 5.578125 0.21875 C 4.660156 0.21875 3.835938 0.0625 3.109375 -0.25 C 2.390625 -0.5625 1.820312 -0.984375 1.40625 -1.515625 C 0.988281 -2.054688 0.78125 -2.671875 0.78125 -3.359375 C 0.78125 -3.691406 0.890625 -3.960938 1.109375 -4.171875 C 1.328125 -4.390625 1.613281 -4.5 1.96875 -4.5 C 2.289062 -4.5 2.554688 -4.390625 2.765625 -4.171875 C 2.972656 -3.960938 3.078125 -3.691406 3.078125 -3.359375 C 3.078125 -3.046875 2.972656 -2.78125 2.765625 -2.5625 C 2.554688 -2.351562 2.289062 -2.25 1.96875 -2.25 C 1.90625 -2.25 1.84375 -2.25 1.78125 -2.25 C 1.726562 -2.257812 1.664062 -2.269531 1.59375 -2.28125 C 1.84375 -1.664062 2.289062 -1.175781 2.9375 -0.8125 C 3.582031 -0.457031 4.320312 -0.28125 5.15625 -0.28125 C 6.332031 -0.28125 7.234375 -0.640625 7.859375 -1.359375 C 8.492188 -2.078125 8.8125 -3.023438 8.8125 -4.203125 Z M 8.8125 -15.09375 "/></g></g></g><g fill="#004aad" fill-opacity="1"><g transform="translate(121.482891, 250.349794)"><g><path d="M 8.5 0.21875 C 7.21875 0.21875 6.078125 -0.0351562 5.078125 -0.546875 C 4.085938 -1.054688 3.3125 -1.78125 2.75 -2.71875 C 2.195312 -3.65625 1.921875 -4.738281 1.921875 -5.96875 L 1.921875 -15.09375 L 3.84375 -15.09375 L 3.84375 -5.625 C 3.84375 -4.59375 4.050781 -3.6875 4.46875 -2.90625 C 4.894531 -2.132812 5.492188 -1.535156 6.265625 -1.109375 C 7.046875 -0.679688 7.945312 -0.46875 8.96875 -0.46875 C 10 -0.46875 10.890625 -0.679688 11.640625 -1.109375 C 12.390625 -1.535156 12.960938 -2.132812 13.359375 -2.90625 C 13.765625 -3.6875 13.96875 -4.59375 13.96875 -5.625 L 13.96875 -15.09375 L 14.484375 -15.09375 L 14.484375 -5.609375 C 14.484375 -4.441406 14.242188 -3.421875 13.765625 -2.546875 C 13.285156 -1.671875 12.597656 -0.988281 11.703125 -0.5 C 10.816406 -0.0195312 9.75 0.21875 8.5 0.21875 Z M 8.5 0.21875 "/></g></g></g><g fill="#004aad" fill-opacity="1"><g transform="translate(137.883075, 250.349794)"><g><path d="M 7.28125 -8.359375 C 7.914062 -8.128906 8.519531 -7.882812 9.09375 -7.625 C 9.675781 -7.375 10.195312 -7.082031 10.65625 -6.75 C 11.125 -6.414062 11.488281 -6.019531 11.75 -5.5625 C 12.019531 -5.113281 12.15625 -4.566406 12.15625 -3.921875 C 12.15625 -3.085938 11.921875 -2.359375 11.453125 -1.734375 C 10.992188 -1.109375 10.347656 -0.625 9.515625 -0.28125 C 8.691406 0.0507812 7.75 0.21875 6.6875 0.21875 C 5.644531 0.21875 4.707031 0.0625 3.875 -0.25 C 3.039062 -0.5625 2.378906 -0.976562 1.890625 -1.5 C 1.410156 -2.019531 1.171875 -2.613281 1.171875 -3.28125 C 1.171875 -3.59375 1.273438 -3.84375 1.484375 -4.03125 C 1.703125 -4.226562 1.96875 -4.328125 2.28125 -4.328125 C 2.570312 -4.328125 2.816406 -4.226562 3.015625 -4.03125 C 3.222656 -3.84375 3.328125 -3.59375 3.328125 -3.28125 C 3.328125 -2.957031 3.222656 -2.695312 3.015625 -2.5 C 2.816406 -2.300781 2.570312 -2.203125 2.28125 -2.203125 L 2.140625 -2.203125 C 2.453125 -1.628906 2.992188 -1.160156 3.765625 -0.796875 C 4.535156 -0.441406 5.421875 -0.265625 6.421875 -0.265625 C 7.242188 -0.265625 7.96875 -0.382812 8.59375 -0.625 C 9.226562 -0.863281 9.722656 -1.195312 10.078125 -1.625 C 10.441406 -2.0625 10.625 -2.5625 10.625 -3.125 C 10.625 -3.726562 10.425781 -4.238281 10.03125 -4.65625 C 9.632812 -5.070312 9.109375 -5.4375 8.453125 -5.75 C 7.804688 -6.070312 7.09375 -6.382812 6.3125 -6.6875 C 5.769531 -6.90625 5.21875 -7.140625 4.65625 -7.390625 C 4.09375 -7.648438 3.570312 -7.957031 3.09375 -8.3125 C 2.625 -8.664062 2.242188 -9.078125 1.953125 -9.546875 C 1.660156 -10.023438 1.515625 -10.585938 1.515625 -11.234375 C 1.515625 -12.035156 1.738281 -12.742188 2.1875 -13.359375 C 2.644531 -13.972656 3.265625 -14.453125 4.046875 -14.796875 C 4.835938 -15.140625 5.734375 -15.3125 6.734375 -15.3125 C 7.648438 -15.3125 8.46875 -15.164062 9.1875 -14.875 C 9.914062 -14.59375 10.492188 -14.207031 10.921875 -13.71875 C 11.359375 -13.226562 11.578125 -12.671875 11.578125 -12.046875 C 11.578125 -11.734375 11.472656 -11.476562 11.265625 -11.28125 C 11.066406 -11.09375 10.828125 -11 10.546875 -11 C 10.222656 -11 9.953125 -11.09375 9.734375 -11.28125 C 9.523438 -11.476562 9.421875 -11.734375 9.421875 -12.046875 C 9.421875 -12.367188 9.523438 -12.628906 9.734375 -12.828125 C 9.953125 -13.023438 10.222656 -13.125 10.546875 -13.125 L 10.625 -13.125 C 10.34375 -13.632812 9.867188 -14.046875 9.203125 -14.359375 C 8.546875 -14.671875 7.785156 -14.828125 6.921875 -14.828125 C 6.171875 -14.828125 5.5 -14.703125 4.90625 -14.453125 C 4.320312 -14.203125 3.859375 -13.859375 3.515625 -13.421875 C 3.171875 -12.984375 3 -12.492188 3 -11.953125 C 3 -11.328125 3.207031 -10.796875 3.625 -10.359375 C 4.039062 -9.929688 4.578125 -9.5625 5.234375 -9.25 C 5.898438 -8.945312 6.582031 -8.648438 7.28125 -8.359375 Z M 7.28125 -8.359375 "/></g></g></g><g fill="#004aad" fill-opacity="1"><g transform="translate(151.050634, 250.349794)"><g><path d="M 12.671875 -15.09375 L 12.671875 -14.65625 L 7.609375 -14.65625 L 7.609375 0 L 5.6875 0 L 5.6875 -14.65625 L 0.578125 -14.65625 L 0.578125 -15.09375 Z M 12.671875 -15.09375 "/></g></g></g><g fill="#004aad" fill-opacity="1"><g transform="translate(164.304391, 250.349794)"><g><path d="M 2.0625 0 L 2.0625 -15.09375 L 3.984375 -15.09375 L 3.984375 0 Z M 2.0625 0 "/></g></g></g><g fill="#004aad" fill-opacity="1"><g transform="translate(170.33862, 250.349794)"><g><path d="M 13.96875 -15.09375 L 14.484375 -15.09375 L 14.484375 0 L 13.75 0 L 2.59375 -13.546875 L 2.59375 0 L 2.0625 0 L 2.0625 -15.09375 L 3.6875 -15.09375 L 13.96875 -2.59375 Z M 13.96875 -15.09375 "/></g></g></g><g fill="#004aad" fill-opacity="1"><g transform="translate(186.86811, 250.349794)"><g/></g></g><g fill="#004aad" fill-opacity="1"><g transform="translate(192.665286, 250.349794)"><g><path d="M 16.859375 0.328125 C 17.160156 0.328125 17.40625 0.425781 17.59375 0.625 C 17.789062 0.820312 17.890625 1.070312 17.890625 1.375 C 17.890625 2.050781 17.742188 2.648438 17.453125 3.171875 C 17.160156 3.703125 16.765625 4.117188 16.265625 4.421875 C 15.773438 4.722656 15.21875 4.875 14.59375 4.875 C 14.019531 4.875 13.472656 4.75 12.953125 4.5 C 12.441406 4.257812 11.941406 3.953125 11.453125 3.578125 C 10.972656 3.203125 10.503906 2.816406 10.046875 2.421875 C 9.390625 1.859375 8.742188 1.34375 8.109375 0.875 C 7.472656 0.414062 6.796875 0.1875 6.078125 0.1875 C 5.691406 0.1875 5.335938 0.257812 5.015625 0.40625 C 4.691406 0.5625 4.425781 0.769531 4.21875 1.03125 L 4.359375 1.03125 C 4.640625 1.03125 4.878906 1.128906 5.078125 1.328125 C 5.285156 1.523438 5.390625 1.78125 5.390625 2.09375 C 5.390625 2.394531 5.285156 2.644531 5.078125 2.84375 C 4.878906 3.039062 4.640625 3.140625 4.359375 3.140625 C 4.035156 3.140625 3.769531 3.039062 3.5625 2.84375 C 3.351562 2.644531 3.25 2.394531 3.25 2.09375 C 3.25 1.445312 3.519531 0.90625 4.0625 0.46875 C 4.613281 0.03125 5.285156 -0.21875 6.078125 -0.28125 C 5.085938 -0.632812 4.210938 -1.164062 3.453125 -1.875 C 2.703125 -2.582031 2.117188 -3.421875 1.703125 -4.390625 C 1.285156 -5.359375 1.078125 -6.410156 1.078125 -7.546875 C 1.078125 -8.648438 1.273438 -9.671875 1.671875 -10.609375 C 2.066406 -11.554688 2.613281 -12.378906 3.3125 -13.078125 C 4.019531 -13.785156 4.851562 -14.332031 5.8125 -14.71875 C 6.769531 -15.113281 7.804688 -15.3125 8.921875 -15.3125 C 10.046875 -15.3125 11.085938 -15.113281 12.046875 -14.71875 C 13.003906 -14.332031 13.835938 -13.785156 14.546875 -13.078125 C 15.253906 -12.378906 15.804688 -11.554688 16.203125 -10.609375 C 16.597656 -9.671875 16.796875 -8.648438 16.796875 -7.546875 C 16.796875 -6.441406 16.597656 -5.414062 16.203125 -4.46875 C 15.804688 -3.53125 15.253906 -2.707031 14.546875 -2 C 13.835938 -1.300781 13.003906 -0.753906 12.046875 -0.359375 C 11.085938 0.0234375 10.046875 0.21875 8.921875 0.21875 C 8.835938 0.21875 8.75 0.21875 8.65625 0.21875 C 8.570312 0.21875 8.5 0.207031 8.4375 0.1875 C 8.851562 0.375 9.265625 0.597656 9.671875 0.859375 C 10.078125 1.128906 10.484375 1.40625 10.890625 1.6875 C 11.566406 2.144531 12.238281 2.5625 12.90625 2.9375 C 13.582031 3.320312 14.28125 3.515625 15 3.515625 C 15.507812 3.515625 15.960938 3.410156 16.359375 3.203125 C 16.765625 3.003906 17.0625 2.726562 17.25 2.375 C 17.144531 2.414062 17.023438 2.4375 16.890625 2.4375 C 16.566406 2.4375 16.300781 2.335938 16.09375 2.140625 C 15.882812 1.953125 15.78125 1.695312 15.78125 1.375 C 15.78125 1.0625 15.878906 0.804688 16.078125 0.609375 C 16.285156 0.421875 16.546875 0.328125 16.859375 0.328125 Z M 3.078125 -7.546875 C 3.078125 -6.078125 3.316406 -4.789062 3.796875 -3.6875 C 4.285156 -2.59375 4.96875 -1.738281 5.84375 -1.125 C 6.71875 -0.519531 7.742188 -0.21875 8.921875 -0.21875 C 10.117188 -0.21875 11.15625 -0.519531 12.03125 -1.125 C 12.90625 -1.738281 13.582031 -2.59375 14.0625 -3.6875 C 14.550781 -4.789062 14.796875 -6.078125 14.796875 -7.546875 C 14.796875 -9.023438 14.550781 -10.3125 14.0625 -11.40625 C 13.582031 -12.5 12.90625 -13.347656 12.03125 -13.953125 C 11.15625 -14.566406 10.117188 -14.875 8.921875 -14.875 C 7.742188 -14.875 6.71875 -14.566406 5.84375 -13.953125 C 4.96875 -13.347656 4.285156 -12.5 3.796875 -11.40625 C 3.316406 -10.3125 3.078125 -9.023438 3.078125 -7.546875 Z M 3.078125 -7.546875 "/></g></g></g><g fill="#004aad" fill-opacity="1"><g transform="translate(210.660227, 250.349794)"><g><path d="M 8.5 0.21875 C 7.21875 0.21875 6.078125 -0.0351562 5.078125 -0.546875 C 4.085938 -1.054688 3.3125 -1.78125 2.75 -2.71875 C 2.195312 -3.65625 1.921875 -4.738281 1.921875 -5.96875 L 1.921875 -15.09375 L 3.84375 -15.09375 L 3.84375 -5.625 C 3.84375 -4.59375 4.050781 -3.6875 4.46875 -2.90625 C 4.894531 -2.132812 5.492188 -1.535156 6.265625 -1.109375 C 7.046875 -0.679688 7.945312 -0.46875 8.96875 -0.46875 C 10 -0.46875 10.890625 -0.679688 11.640625 -1.109375 C 12.390625 -1.535156 12.960938 -2.132812 13.359375 -2.90625 C 13.765625 -3.6875 13.96875 -4.59375 13.96875 -5.625 L 13.96875 -15.09375 L 14.484375 -15.09375 L 14.484375 -5.609375 C 14.484375 -4.441406 14.242188 -3.421875 13.765625 -2.546875 C 13.285156 -1.671875 12.597656 -0.988281 11.703125 -0.5 C 10.816406 -0.0195312 9.75 0.21875 8.5 0.21875 Z M 8.5 0.21875 "/></g></g></g><g fill="#004aad" fill-opacity="1"><g transform="translate(227.060411, 250.349794)"><g><path d="M 2.0625 0 L 2.0625 -15.09375 L 3.984375 -15.09375 L 3.984375 0 Z M 2.0625 0 "/></g></g></g><g fill="#004aad" fill-opacity="1"><g transform="translate(233.09464, 250.349794)"><g><path d="M 13.96875 -15.09375 L 14.484375 -15.09375 L 14.484375 0 L 13.75 0 L 2.59375 -13.546875 L 2.59375 0 L 2.0625 0 L 2.0625 -15.09375 L 3.6875 -15.09375 L 13.96875 -2.59375 Z M 13.96875 -15.09375 "/></g></g></g><g fill="#004aad" fill-opacity="1"><g transform="translate(249.62413, 250.349794)"><g><path d="M 13.96875 -15.09375 L 14.484375 -15.09375 L 14.484375 0 L 13.75 0 L 2.59375 -13.546875 L 2.59375 0 L 2.0625 0 L 2.0625 -15.09375 L 3.6875 -15.09375 L 13.96875 -2.59375 Z M 13.96875 -15.09375 "/></g></g></g><g fill="#737373" fill-opacity="1"><g transform="translate(133.929072, 267.9751)"><g><path d="M 3.875 0.125 C 3.414062 0.125 2.957031 0.0703125 2.5 -0.03125 C 2.039062 -0.132812 1.640625 -0.3125 1.296875 -0.5625 C 0.960938 -0.8125 0.722656 -1.15625 0.578125 -1.59375 C 0.441406 -2.03125 0.453125 -2.578125 0.609375 -3.234375 L 1.46875 -2.984375 C 1.3125 -2.472656 1.273438 -2.046875 1.359375 -1.703125 C 1.441406 -1.359375 1.609375 -1.082031 1.859375 -0.875 C 2.117188 -0.675781 2.425781 -0.535156 2.78125 -0.453125 C 3.144531 -0.367188 3.519531 -0.328125 3.90625 -0.328125 C 4.550781 -0.328125 5.050781 -0.453125 5.40625 -0.703125 C 5.769531 -0.960938 5.953125 -1.359375 5.953125 -1.890625 C 5.953125 -2.203125 5.890625 -2.445312 5.765625 -2.625 C 5.640625 -2.8125 5.472656 -2.96875 5.265625 -3.09375 C 5.054688 -3.226562 4.8125 -3.34375 4.53125 -3.4375 C 4.257812 -3.53125 3.960938 -3.640625 3.640625 -3.765625 C 3.273438 -3.910156 2.921875 -4.050781 2.578125 -4.1875 C 2.242188 -4.320312 1.9375 -4.472656 1.65625 -4.640625 C 1.382812 -4.816406 1.171875 -5.023438 1.015625 -5.265625 C 0.859375 -5.515625 0.78125 -5.820312 0.78125 -6.1875 C 0.78125 -6.644531 0.90625 -7.015625 1.15625 -7.296875 C 1.414062 -7.585938 1.765625 -7.804688 2.203125 -7.953125 C 2.640625 -8.097656 3.125 -8.171875 3.65625 -8.171875 C 4.082031 -8.171875 4.488281 -8.113281 4.875 -8 C 5.257812 -7.894531 5.59375 -7.726562 5.875 -7.5 C 6.15625 -7.28125 6.347656 -6.984375 6.453125 -6.609375 C 6.566406 -6.242188 6.539062 -5.804688 6.375 -5.296875 L 5.515625 -5.53125 C 5.710938 -6.019531 5.75 -6.425781 5.625 -6.75 C 5.5 -7.070312 5.257812 -7.3125 4.90625 -7.46875 C 4.5625 -7.632812 4.144531 -7.71875 3.65625 -7.71875 C 3.039062 -7.71875 2.550781 -7.597656 2.1875 -7.359375 C 1.820312 -7.117188 1.640625 -6.765625 1.640625 -6.296875 C 1.640625 -6.035156 1.703125 -5.8125 1.828125 -5.625 C 1.960938 -5.4375 2.140625 -5.28125 2.359375 -5.15625 C 2.578125 -5.03125 2.804688 -4.921875 3.046875 -4.828125 C 3.285156 -4.734375 3.519531 -4.644531 3.75 -4.5625 C 4.1875 -4.414062 4.585938 -4.269531 4.953125 -4.125 C 5.328125 -3.976562 5.648438 -3.816406 5.921875 -3.640625 C 6.203125 -3.460938 6.414062 -3.242188 6.5625 -2.984375 C 6.71875 -2.722656 6.796875 -2.394531 6.796875 -2 C 6.796875 -1.476562 6.660156 -1.0625 6.390625 -0.75 C 6.128906 -0.445312 5.773438 -0.222656 5.328125 -0.078125 C 4.890625 0.0546875 4.40625 0.125 3.875 0.125 Z M 3.875 0.125 "/></g></g></g><g fill="#737373" fill-opacity="1"><g transform="translate(141.088438, 267.9751)"><g><path d="M 3.46875 0.125 C 2.789062 0.125 2.226562 -0.0234375 1.78125 -0.328125 C 1.34375 -0.640625 1.015625 -1.035156 0.796875 -1.515625 C 0.585938 -2.003906 0.484375 -2.515625 0.484375 -3.046875 C 0.484375 -3.585938 0.585938 -4.097656 0.796875 -4.578125 C 1.015625 -5.054688 1.34375 -5.445312 1.78125 -5.75 C 2.226562 -6.0625 2.789062 -6.21875 3.46875 -6.21875 C 4.132812 -6.21875 4.6875 -6.0625 5.125 -5.75 C 5.5625 -5.445312 5.890625 -5.054688 6.109375 -4.578125 C 6.328125 -4.097656 6.4375 -3.585938 6.4375 -3.046875 C 6.4375 -2.515625 6.328125 -2.003906 6.109375 -1.515625 C 5.890625 -1.035156 5.5625 -0.640625 5.125 -0.328125 C 4.6875 -0.0234375 4.132812 0.125 3.46875 0.125 Z M 3.6875 -0.34375 C 4.382812 -0.394531 4.890625 -0.6875 5.203125 -1.21875 C 5.515625 -1.75 5.632812 -2.410156 5.5625 -3.203125 C 5.5 -4.003906 5.269531 -4.644531 4.875 -5.125 C 4.488281 -5.601562 3.941406 -5.8125 3.234375 -5.75 C 2.535156 -5.695312 2.03125 -5.40625 1.71875 -4.875 C 1.40625 -4.34375 1.28125 -3.679688 1.34375 -2.890625 C 1.414062 -2.085938 1.644531 -1.445312 2.03125 -0.96875 C 2.425781 -0.488281 2.976562 -0.28125 3.6875 -0.34375 Z M 3.6875 -0.34375 "/></g></g></g><g fill="#737373" fill-opacity="1"><g transform="translate(148.004296, 267.9751)"><g><path d="M 0.796875 0 L 0.796875 -0.203125 C 1.046875 -0.203125 1.207031 -0.273438 1.28125 -0.421875 C 1.363281 -0.566406 1.40625 -0.820312 1.40625 -1.1875 L 1.40625 -5.640625 L 0.484375 -5.640625 L 0.484375 -6.09375 L 1.40625 -6.09375 L 1.40625 -6.625 C 1.40625 -7.425781 1.570312 -8.003906 1.90625 -8.359375 C 2.238281 -8.710938 2.675781 -8.890625 3.21875 -8.890625 C 3.632812 -8.890625 3.953125 -8.796875 4.171875 -8.609375 C 4.398438 -8.429688 4.53125 -8.203125 4.5625 -7.921875 C 4.59375 -7.640625 4.519531 -7.332031 4.34375 -7 L 3.484375 -7.25 C 3.703125 -7.457031 3.820312 -7.648438 3.84375 -7.828125 C 3.875 -8.015625 3.835938 -8.164062 3.734375 -8.28125 C 3.628906 -8.394531 3.484375 -8.453125 3.296875 -8.453125 C 2.953125 -8.453125 2.707031 -8.34375 2.5625 -8.125 C 2.425781 -7.914062 2.335938 -7.632812 2.296875 -7.28125 C 2.265625 -6.925781 2.25 -6.53125 2.25 -6.09375 L 4.140625 -6.09375 C 4.140625 -5.9375 4.117188 -5.820312 4.078125 -5.75 C 4.046875 -5.675781 3.914062 -5.640625 3.6875 -5.640625 L 2.25 -5.640625 L 2.25 -1.1875 C 2.25 -0.820312 2.285156 -0.566406 2.359375 -0.421875 C 2.441406 -0.273438 2.609375 -0.203125 2.859375 -0.203125 L 2.859375 0 Z M 0.796875 0 "/></g></g></g><g fill="#737373" fill-opacity="1"><g transform="translate(152.704156, 267.9751)"><g><path d="M 2.78125 0.125 C 2.53125 0.125 2.296875 0.0820312 2.078125 0 C 1.859375 -0.0820312 1.675781 -0.253906 1.53125 -0.515625 C 1.382812 -0.773438 1.3125 -1.175781 1.3125 -1.71875 L 1.3125 -5.640625 L 0.484375 -5.640625 L 0.484375 -6.09375 C 0.722656 -6.101562 0.910156 -6.128906 1.046875 -6.171875 C 1.191406 -6.210938 1.300781 -6.296875 1.375 -6.421875 C 1.445312 -6.546875 1.492188 -6.738281 1.515625 -7 C 1.546875 -7.257812 1.5625 -7.609375 1.5625 -8.046875 L 2.171875 -8.046875 L 2.171875 -6.09375 L 3.609375 -6.09375 C 3.609375 -5.9375 3.585938 -5.820312 3.546875 -5.75 C 3.515625 -5.675781 3.382812 -5.640625 3.15625 -5.640625 L 2.171875 -5.640625 L 2.171875 -1.921875 C 2.171875 -1.398438 2.207031 -1.003906 2.28125 -0.734375 C 2.351562 -0.460938 2.523438 -0.328125 2.796875 -0.328125 C 2.984375 -0.328125 3.113281 -0.382812 3.1875 -0.5 C 3.269531 -0.613281 3.316406 -0.757812 3.328125 -0.9375 L 3.96875 -0.78125 C 3.914062 -0.457031 3.773438 -0.222656 3.546875 -0.078125 C 3.328125 0.0546875 3.070312 0.125 2.78125 0.125 Z M 2.78125 0.125 "/></g></g></g><g fill="#737373" fill-opacity="1"><g transform="translate(157.038743, 267.9751)"><g><path d="M 2.671875 0 L 1.125 -4.96875 C 1.019531 -5.320312 0.894531 -5.5625 0.75 -5.6875 C 0.601562 -5.820312 0.394531 -5.890625 0.125 -5.890625 L 0.125 -6.09375 L 2.796875 -6.09375 L 2.796875 -5.890625 C 2.335938 -5.890625 2.066406 -5.820312 1.984375 -5.6875 C 1.898438 -5.5625 1.910156 -5.320312 2.015625 -4.96875 L 3.328125 -0.703125 L 5.234375 -6.09375 L 5.703125 -6.09375 L 7.359375 -0.75 L 8.671875 -4.96875 C 8.773438 -5.320312 8.785156 -5.5625 8.703125 -5.6875 C 8.617188 -5.820312 8.347656 -5.890625 7.890625 -5.890625 L 7.890625 -6.09375 L 10.125 -6.09375 L 10.125 -5.890625 C 9.863281 -5.890625 9.660156 -5.820312 9.515625 -5.6875 C 9.367188 -5.5625 9.238281 -5.320312 9.125 -4.96875 L 7.609375 0 L 6.703125 0 L 5.265625 -4.84375 L 3.5625 0 Z M 2.671875 0 "/></g></g></g><g fill="#737373" fill-opacity="1"><g transform="translate(167.278583, 267.9751)"><g><path d="M 2.21875 0.125 C 1.71875 0.125 1.300781 0.00390625 0.96875 -0.234375 C 0.644531 -0.484375 0.484375 -0.867188 0.484375 -1.390625 C 0.484375 -1.734375 0.578125 -2.03125 0.765625 -2.28125 C 0.953125 -2.539062 1.195312 -2.753906 1.5 -2.921875 C 1.8125 -3.097656 2.160156 -3.242188 2.546875 -3.359375 C 2.929688 -3.484375 3.320312 -3.582031 3.71875 -3.65625 C 4.125 -3.738281 4.503906 -3.804688 4.859375 -3.859375 C 4.847656 -4.265625 4.796875 -4.609375 4.703125 -4.890625 C 4.609375 -5.179688 4.453125 -5.398438 4.234375 -5.546875 C 4.015625 -5.691406 3.703125 -5.765625 3.296875 -5.765625 C 2.910156 -5.765625 2.578125 -5.679688 2.296875 -5.515625 C 2.023438 -5.347656 1.835938 -5.125 1.734375 -4.84375 C 1.628906 -4.570312 1.632812 -4.273438 1.75 -3.953125 L 0.9375 -3.671875 C 0.8125 -4.117188 0.828125 -4.535156 0.984375 -4.921875 C 1.148438 -5.304688 1.4375 -5.617188 1.84375 -5.859375 C 2.257812 -6.097656 2.78125 -6.21875 3.40625 -6.21875 C 4 -6.21875 4.460938 -6.109375 4.796875 -5.890625 C 5.140625 -5.671875 5.378906 -5.335938 5.515625 -4.890625 C 5.660156 -4.453125 5.734375 -3.894531 5.734375 -3.21875 L 5.734375 -1.28125 C 5.734375 -0.914062 5.769531 -0.6875 5.84375 -0.59375 C 5.925781 -0.5 6.09375 -0.515625 6.34375 -0.640625 L 6.34375 -0.390625 C 6.257812 -0.253906 6.144531 -0.15625 6 -0.09375 C 5.851562 -0.03125 5.710938 0 5.578125 0 C 5.390625 0 5.226562 -0.0507812 5.09375 -0.15625 C 4.96875 -0.257812 4.898438 -0.414062 4.890625 -0.625 L 4.890625 -1.234375 L 4.8125 -1.234375 C 4.570312 -0.804688 4.21875 -0.472656 3.75 -0.234375 C 3.28125 0.00390625 2.769531 0.125 2.21875 0.125 Z M 2.46875 -0.328125 C 2.832031 -0.328125 3.203125 -0.414062 3.578125 -0.59375 C 3.953125 -0.78125 4.265625 -1.046875 4.515625 -1.390625 C 4.765625 -1.734375 4.890625 -2.144531 4.890625 -2.625 L 4.890625 -3.421875 C 4.453125 -3.367188 4.019531 -3.289062 3.59375 -3.1875 C 3.175781 -3.082031 2.796875 -2.945312 2.453125 -2.78125 C 2.109375 -2.625 1.835938 -2.429688 1.640625 -2.203125 C 1.441406 -1.984375 1.34375 -1.722656 1.34375 -1.421875 C 1.34375 -1.078125 1.425781 -0.804688 1.59375 -0.609375 C 1.769531 -0.421875 2.0625 -0.328125 2.46875 -0.328125 Z M 2.46875 -0.328125 "/></g></g></g><g fill="#737373" fill-opacity="1"><g transform="translate(173.865688, 267.9751)"><g><path d="M 0.484375 0 L 0.484375 -0.203125 C 0.734375 -0.203125 0.894531 -0.273438 0.96875 -0.421875 C 1.050781 -0.566406 1.09375 -0.820312 1.09375 -1.1875 L 1.09375 -4.90625 C 1.09375 -5.269531 1.050781 -5.523438 0.96875 -5.671875 C 0.894531 -5.816406 0.734375 -5.890625 0.484375 -5.890625 L 0.484375 -6.09375 L 1.25 -6.09375 C 1.46875 -6.082031 1.640625 -6.035156 1.765625 -5.953125 C 1.890625 -5.878906 1.953125 -5.691406 1.953125 -5.390625 L 1.953125 -4.25 L 2.015625 -4.25 C 2.097656 -4.539062 2.234375 -4.835938 2.421875 -5.140625 C 2.617188 -5.441406 2.878906 -5.695312 3.203125 -5.90625 C 3.523438 -6.113281 3.914062 -6.21875 4.375 -6.21875 C 5 -6.21875 5.421875 -6 5.640625 -5.5625 C 5.867188 -5.125 5.816406 -4.445312 5.484375 -3.53125 L 4.625 -3.78125 C 5.175781 -5.101562 5.015625 -5.765625 4.140625 -5.765625 C 3.796875 -5.765625 3.484375 -5.65625 3.203125 -5.4375 C 2.929688 -5.226562 2.703125 -4.945312 2.515625 -4.59375 C 2.335938 -4.25 2.195312 -3.863281 2.09375 -3.4375 C 2 -3.019531 1.953125 -2.601562 1.953125 -2.1875 L 1.953125 -1.1875 C 1.953125 -0.820312 1.988281 -0.566406 2.0625 -0.421875 C 2.144531 -0.273438 2.3125 -0.203125 2.5625 -0.203125 L 2.5625 0 Z M 0.484375 0 "/></g></g></g><g fill="#737373" fill-opacity="1"><g transform="translate(179.990119, 267.9751)"><g><path d="M 3.53125 0.125 C 2.820312 0.125 2.242188 -0.0078125 1.796875 -0.28125 C 1.347656 -0.5625 1.015625 -0.9375 0.796875 -1.40625 C 0.585938 -1.875 0.484375 -2.394531 0.484375 -2.96875 C 0.484375 -3.65625 0.625 -4.238281 0.90625 -4.71875 C 1.1875 -5.207031 1.566406 -5.578125 2.046875 -5.828125 C 2.523438 -6.085938 3.054688 -6.21875 3.640625 -6.21875 C 4.359375 -6.21875 4.90625 -6.0625 5.28125 -5.75 C 5.664062 -5.4375 5.859375 -5.023438 5.859375 -4.515625 C 5.859375 -4.140625 5.757812 -3.828125 5.5625 -3.578125 C 5.363281 -3.335938 5.097656 -3.148438 4.765625 -3.015625 C 4.441406 -2.878906 4.078125 -2.789062 3.671875 -2.75 C 3.273438 -2.71875 2.875 -2.722656 2.46875 -2.765625 C 2.0625 -2.816406 1.6875 -2.894531 1.34375 -3 L 1.34375 -2.8125 C 1.351562 -2.300781 1.445312 -1.859375 1.625 -1.484375 C 1.8125 -1.109375 2.0625 -0.820312 2.375 -0.625 C 2.695312 -0.425781 3.050781 -0.328125 3.4375 -0.328125 C 3.707031 -0.328125 3.972656 -0.378906 4.234375 -0.484375 C 4.503906 -0.585938 4.71875 -0.757812 4.875 -1 C 5.039062 -1.238281 5.097656 -1.5625 5.046875 -1.96875 L 5.90625 -2.25 C 5.9375 -1.851562 5.867188 -1.472656 5.703125 -1.109375 C 5.546875 -0.753906 5.285156 -0.457031 4.921875 -0.21875 C 4.566406 0.0078125 4.101562 0.125 3.53125 0.125 Z M 1.375 -3.453125 C 2.164062 -3.242188 2.832031 -3.164062 3.375 -3.21875 C 3.914062 -3.269531 4.320312 -3.414062 4.59375 -3.65625 C 4.875 -3.894531 5.015625 -4.179688 5.015625 -4.515625 C 5.015625 -4.867188 4.898438 -5.164062 4.671875 -5.40625 C 4.453125 -5.644531 4.085938 -5.765625 3.578125 -5.765625 C 2.929688 -5.765625 2.421875 -5.550781 2.046875 -5.125 C 1.671875 -4.707031 1.445312 -4.148438 1.375 -3.453125 Z M 1.375 -3.453125 "/></g></g></g><g fill="#737373" fill-opacity="1"><g transform="translate(186.382411, 267.9751)"><g/></g></g><g fill="#737373" fill-opacity="1"><g transform="translate(189.195025, 267.9751)"><g><path d="M 3.875 0.125 C 3.414062 0.125 2.957031 0.0703125 2.5 -0.03125 C 2.039062 -0.132812 1.640625 -0.3125 1.296875 -0.5625 C 0.960938 -0.8125 0.722656 -1.15625 0.578125 -1.59375 C 0.441406 -2.03125 0.453125 -2.578125 0.609375 -3.234375 L 1.46875 -2.984375 C 1.3125 -2.472656 1.273438 -2.046875 1.359375 -1.703125 C 1.441406 -1.359375 1.609375 -1.082031 1.859375 -0.875 C 2.117188 -0.675781 2.425781 -0.535156 2.78125 -0.453125 C 3.144531 -0.367188 3.519531 -0.328125 3.90625 -0.328125 C 4.550781 -0.328125 5.050781 -0.453125 5.40625 -0.703125 C 5.769531 -0.960938 5.953125 -1.359375 5.953125 -1.890625 C 5.953125 -2.203125 5.890625 -2.445312 5.765625 -2.625 C 5.640625 -2.8125 5.472656 -2.96875 5.265625 -3.09375 C 5.054688 -3.226562 4.8125 -3.34375 4.53125 -3.4375 C 4.257812 -3.53125 3.960938 -3.640625 3.640625 -3.765625 C 3.273438 -3.910156 2.921875 -4.050781 2.578125 -4.1875 C 2.242188 -4.320312 1.9375 -4.472656 1.65625 -4.640625 C 1.382812 -4.816406 1.171875 -5.023438 1.015625 -5.265625 C 0.859375 -5.515625 0.78125 -5.820312 0.78125 -6.1875 C 0.78125 -6.644531 0.90625 -7.015625 1.15625 -7.296875 C 1.414062 -7.585938 1.765625 -7.804688 2.203125 -7.953125 C 2.640625 -8.097656 3.125 -8.171875 3.65625 -8.171875 C 4.082031 -8.171875 4.488281 -8.113281 4.875 -8 C 5.257812 -7.894531 5.59375 -7.726562 5.875 -7.5 C 6.15625 -7.28125 6.347656 -6.984375 6.453125 -6.609375 C 6.566406 -6.242188 6.539062 -5.804688 6.375 -5.296875 L 5.515625 -5.53125 C 5.710938 -6.019531 5.75 -6.425781 5.625 -6.75 C 5.5 -7.070312 5.257812 -7.3125 4.90625 -7.46875 C 4.5625 -7.632812 4.144531 -7.71875 3.65625 -7.71875 C 3.039062 -7.71875 2.550781 -7.597656 2.1875 -7.359375 C 1.820312 -7.117188 1.640625 -6.765625 1.640625 -6.296875 C 1.640625 -6.035156 1.703125 -5.8125 1.828125 -5.625 C 1.960938 -5.4375 2.140625 -5.28125 2.359375 -5.15625 C 2.578125 -5.03125 2.804688 -4.921875 3.046875 -4.828125 C 3.285156 -4.734375 3.519531 -4.644531 3.75 -4.5625 C 4.1875 -4.414062 4.585938 -4.269531 4.953125 -4.125 C 5.328125 -3.976562 5.648438 -3.816406 5.921875 -3.640625 C 6.203125 -3.460938 6.414062 -3.242188 6.5625 -2.984375 C 6.71875 -2.722656 6.796875 -2.394531 6.796875 -2 C 6.796875 -1.476562 6.660156 -1.0625 6.390625 -0.75 C 6.128906 -0.445312 5.773438 -0.222656 5.328125 -0.078125 C 4.890625 0.0546875 4.40625 0.125 3.875 0.125 Z M 3.875 0.125 "/></g></g></g><g fill="#737373" fill-opacity="1"><g transform="translate(196.354391, 267.9751)"><g><path d="M 3.46875 0.125 C 2.789062 0.125 2.226562 -0.0234375 1.78125 -0.328125 C 1.34375 -0.640625 1.015625 -1.035156 0.796875 -1.515625 C 0.585938 -2.003906 0.484375 -2.515625 0.484375 -3.046875 C 0.484375 -3.585938 0.585938 -4.097656 0.796875 -4.578125 C 1.015625 -5.054688 1.34375 -5.445312 1.78125 -5.75 C 2.226562 -6.0625 2.789062 -6.21875 3.46875 -6.21875 C 4.132812 -6.21875 4.6875 -6.0625 5.125 -5.75 C 5.5625 -5.445312 5.890625 -5.054688 6.109375 -4.578125 C 6.328125 -4.097656 6.4375 -3.585938 6.4375 -3.046875 C 6.4375 -2.515625 6.328125 -2.003906 6.109375 -1.515625 C 5.890625 -1.035156 5.5625 -0.640625 5.125 -0.328125 C 4.6875 -0.0234375 4.132812 0.125 3.46875 0.125 Z M 3.6875 -0.34375 C 4.382812 -0.394531 4.890625 -0.6875 5.203125 -1.21875 C 5.515625 -1.75 5.632812 -2.410156 5.5625 -3.203125 C 5.5 -4.003906 5.269531 -4.644531 4.875 -5.125 C 4.488281 -5.601562 3.941406 -5.8125 3.234375 -5.75 C 2.535156 -5.695312 2.03125 -5.40625 1.71875 -4.875 C 1.40625 -4.34375 1.28125 -3.679688 1.34375 -2.890625 C 1.414062 -2.085938 1.644531 -1.445312 2.03125 -0.96875 C 2.425781 -0.488281 2.976562 -0.28125 3.6875 -0.34375 Z M 3.6875 -0.34375 "/></g></g></g><g fill="#737373" fill-opacity="1"><g transform="translate(203.27025, 267.9751)"><g><path d="M 0.484375 0 L 0.484375 -0.203125 C 0.734375 -0.203125 0.894531 -0.273438 0.96875 -0.421875 C 1.050781 -0.566406 1.09375 -0.820312 1.09375 -1.1875 L 1.09375 -7.59375 C 1.09375 -7.957031 1.050781 -8.207031 0.96875 -8.34375 C 0.894531 -8.488281 0.734375 -8.5625 0.484375 -8.5625 L 0.484375 -8.78125 L 1.25 -8.78125 C 1.46875 -8.769531 1.640625 -8.71875 1.765625 -8.625 C 1.890625 -8.539062 1.953125 -8.332031 1.953125 -8 L 1.953125 -1.1875 C 1.953125 -0.820312 1.988281 -0.566406 2.0625 -0.421875 C 2.144531 -0.273438 2.3125 -0.203125 2.5625 -0.203125 L 2.5625 0 Z M 0.484375 0 "/></g></g></g><g fill="#737373" fill-opacity="1"><g transform="translate(206.192441, 267.9751)"><g><path d="M 3.078125 0.125 C 2.378906 0.125 1.875 -0.09375 1.5625 -0.53125 C 1.25 -0.976562 1.09375 -1.597656 1.09375 -2.390625 L 1.09375 -4.90625 C 1.09375 -5.269531 1.050781 -5.523438 0.96875 -5.671875 C 0.894531 -5.816406 0.734375 -5.890625 0.484375 -5.890625 L 0.484375 -6.09375 L 2.5625 -6.09375 L 2.5625 -5.890625 C 2.3125 -5.890625 2.144531 -5.816406 2.0625 -5.671875 C 1.988281 -5.523438 1.953125 -5.269531 1.953125 -4.90625 L 1.953125 -2.15625 C 1.953125 -1.613281 2.046875 -1.171875 2.234375 -0.828125 C 2.421875 -0.492188 2.757812 -0.328125 3.25 -0.328125 C 3.707031 -0.328125 4.078125 -0.429688 4.359375 -0.640625 C 4.648438 -0.859375 4.875 -1.140625 5.03125 -1.484375 C 5.195312 -1.835938 5.3125 -2.222656 5.375 -2.640625 C 5.4375 -3.066406 5.46875 -3.488281 5.46875 -3.90625 L 5.46875 -4.90625 C 5.46875 -5.269531 5.429688 -5.523438 5.359375 -5.671875 C 5.285156 -5.816406 5.117188 -5.890625 4.859375 -5.890625 L 4.859375 -6.09375 L 6.9375 -6.09375 L 6.9375 -5.890625 C 6.6875 -5.890625 6.519531 -5.816406 6.4375 -5.671875 C 6.363281 -5.523438 6.328125 -5.269531 6.328125 -4.90625 L 6.328125 -1.1875 C 6.328125 -0.820312 6.363281 -0.566406 6.4375 -0.421875 C 6.519531 -0.273438 6.6875 -0.203125 6.9375 -0.203125 L 6.9375 0 L 6.171875 0 C 5.953125 -0.0078125 5.78125 -0.0507812 5.65625 -0.125 C 5.53125 -0.207031 5.46875 -0.398438 5.46875 -0.703125 L 5.46875 -1.75 L 5.40625 -1.75 C 5.300781 -1.40625 5.15625 -1.085938 4.96875 -0.796875 C 4.78125 -0.515625 4.53125 -0.289062 4.21875 -0.125 C 3.90625 0.0390625 3.523438 0.125 3.078125 0.125 Z M 3.078125 0.125 "/></g></g></g><g fill="#737373" fill-opacity="1"><g transform="translate(213.607503, 267.9751)"><g><path d="M 2.78125 0.125 C 2.53125 0.125 2.296875 0.0820312 2.078125 0 C 1.859375 -0.0820312 1.675781 -0.253906 1.53125 -0.515625 C 1.382812 -0.773438 1.3125 -1.175781 1.3125 -1.71875 L 1.3125 -5.640625 L 0.484375 -5.640625 L 0.484375 -6.09375 C 0.722656 -6.101562 0.910156 -6.128906 1.046875 -6.171875 C 1.191406 -6.210938 1.300781 -6.296875 1.375 -6.421875 C 1.445312 -6.546875 1.492188 -6.738281 1.515625 -7 C 1.546875 -7.257812 1.5625 -7.609375 1.5625 -8.046875 L 2.171875 -8.046875 L 2.171875 -6.09375 L 3.609375 -6.09375 C 3.609375 -5.9375 3.585938 -5.820312 3.546875 -5.75 C 3.515625 -5.675781 3.382812 -5.640625 3.15625 -5.640625 L 2.171875 -5.640625 L 2.171875 -1.921875 C 2.171875 -1.398438 2.207031 -1.003906 2.28125 -0.734375 C 2.351562 -0.460938 2.523438 -0.328125 2.796875 -0.328125 C 2.984375 -0.328125 3.113281 -0.382812 3.1875 -0.5 C 3.269531 -0.613281 3.316406 -0.757812 3.328125 -0.9375 L 3.96875 -0.78125 C 3.914062 -0.457031 3.773438 -0.222656 3.546875 -0.078125 C 3.328125 0.0546875 3.070312 0.125 2.78125 0.125 Z M 2.78125 0.125 "/></g></g></g><g fill="#737373" fill-opacity="1"><g transform="translate(217.942089, 267.9751)"><g><path d="M 1.40625 -7.234375 C 1.25 -7.234375 1.117188 -7.273438 1.015625 -7.359375 C 0.910156 -7.453125 0.859375 -7.566406 0.859375 -7.703125 C 0.859375 -7.828125 0.910156 -7.9375 1.015625 -8.03125 C 1.117188 -8.125 1.25 -8.171875 1.40625 -8.171875 C 1.5625 -8.171875 1.6875 -8.125 1.78125 -8.03125 C 1.875 -7.9375 1.921875 -7.828125 1.921875 -7.703125 C 1.921875 -7.566406 1.875 -7.453125 1.78125 -7.359375 C 1.6875 -7.273438 1.5625 -7.234375 1.40625 -7.234375 Z M 0.484375 0 L 0.484375 -0.203125 C 0.734375 -0.203125 0.894531 -0.273438 0.96875 -0.421875 C 1.050781 -0.566406 1.09375 -0.820312 1.09375 -1.1875 L 1.09375 -4.90625 C 1.09375 -5.269531 1.050781 -5.523438 0.96875 -5.671875 C 0.894531 -5.816406 0.734375 -5.890625 0.484375 -5.890625 L 0.484375 -6.09375 L 1.25 -6.09375 C 1.46875 -6.082031 1.640625 -6.035156 1.765625 -5.953125 C 1.890625 -5.878906 1.953125 -5.691406 1.953125 -5.390625 L 1.953125 -1.1875 C 1.953125 -0.820312 1.988281 -0.566406 2.0625 -0.421875 C 2.144531 -0.273438 2.3125 -0.203125 2.5625 -0.203125 L 2.5625 0 Z M 0.484375 0 "/></g></g></g><g fill="#737373" fill-opacity="1"><g transform="translate(220.986035, 267.9751)"><g><path d="M 3.46875 0.125 C 2.789062 0.125 2.226562 -0.0234375 1.78125 -0.328125 C 1.34375 -0.640625 1.015625 -1.035156 0.796875 -1.515625 C 0.585938 -2.003906 0.484375 -2.515625 0.484375 -3.046875 C 0.484375 -3.585938 0.585938 -4.097656 0.796875 -4.578125 C 1.015625 -5.054688 1.34375 -5.445312 1.78125 -5.75 C 2.226562 -6.0625 2.789062 -6.21875 3.46875 -6.21875 C 4.132812 -6.21875 4.6875 -6.0625 5.125 -5.75 C 5.5625 -5.445312 5.890625 -5.054688 6.109375 -4.578125 C 6.328125 -4.097656 6.4375 -3.585938 6.4375 -3.046875 C 6.4375 -2.515625 6.328125 -2.003906 6.109375 -1.515625 C 5.890625 -1.035156 5.5625 -0.640625 5.125 -0.328125 C 4.6875 -0.0234375 4.132812 0.125 3.46875 0.125 Z M 3.6875 -0.34375 C 4.382812 -0.394531 4.890625 -0.6875 5.203125 -1.21875 C 5.515625 -1.75 5.632812 -2.410156 5.5625 -3.203125 C 5.5 -4.003906 5.269531 -4.644531 4.875 -5.125 C 4.488281 -5.601562 3.941406 -5.8125 3.234375 -5.75 C 2.535156 -5.695312 2.03125 -5.40625 1.71875 -4.875 C 1.40625 -4.34375 1.28125 -3.679688 1.34375 -2.890625 C 1.414062 -2.085938 1.644531 -1.445312 2.03125 -0.96875 C 2.425781 -0.488281 2.976562 -0.28125 3.6875 -0.34375 Z M 3.6875 -0.34375 "/></g></g></g><g fill="#737373" fill-opacity="1"><g transform="translate(227.901893, 267.9751)"><g><path d="M 0.484375 0 L 0.484375 -0.203125 C 0.734375 -0.203125 0.894531 -0.273438 0.96875 -0.421875 C 1.050781 -0.566406 1.09375 -0.820312 1.09375 -1.1875 L 1.09375 -4.90625 C 1.09375 -5.269531 1.050781 -5.523438 0.96875 -5.671875 C 0.894531 -5.816406 0.734375 -5.890625 0.484375 -5.890625 L 0.484375 -6.09375 L 1.25 -6.09375 C 1.46875 -6.082031 1.640625 -6.035156 1.765625 -5.953125 C 1.890625 -5.878906 1.953125 -5.691406 1.953125 -5.390625 L 1.953125 -4.34375 L 2.015625 -4.34375 C 2.117188 -4.6875 2.265625 -5 2.453125 -5.28125 C 2.640625 -5.570312 2.890625 -5.800781 3.203125 -5.96875 C 3.523438 -6.132812 3.910156 -6.21875 4.359375 -6.21875 C 5.054688 -6.21875 5.554688 -6 5.859375 -5.5625 C 6.171875 -5.125 6.328125 -4.503906 6.328125 -3.703125 L 6.328125 -1.1875 C 6.328125 -0.820312 6.363281 -0.566406 6.4375 -0.421875 C 6.519531 -0.273438 6.6875 -0.203125 6.9375 -0.203125 L 6.9375 0 L 4.859375 0 L 4.859375 -0.203125 C 5.117188 -0.203125 5.285156 -0.273438 5.359375 -0.421875 C 5.429688 -0.566406 5.46875 -0.820312 5.46875 -1.1875 L 5.46875 -3.9375 C 5.46875 -4.476562 5.375 -4.914062 5.1875 -5.25 C 5.007812 -5.59375 4.671875 -5.765625 4.171875 -5.765625 C 3.722656 -5.765625 3.351562 -5.65625 3.0625 -5.4375 C 2.769531 -5.226562 2.539062 -4.945312 2.375 -4.59375 C 2.21875 -4.25 2.109375 -3.863281 2.046875 -3.4375 C 1.984375 -3.019531 1.953125 -2.601562 1.953125 -2.1875 L 1.953125 -1.1875 C 1.953125 -0.820312 1.988281 -0.566406 2.0625 -0.421875 C 2.144531 -0.273438 2.3125 -0.203125 2.5625 -0.203125 L 2.5625 0 Z M 0.484375 0 "/></g></g></g><g fill="#737373" fill-opacity="1"><g transform="translate(235.316955, 267.9751)"><g><path d="M 3.0625 0.125 C 2.664062 0.125 2.285156 0.0820312 1.921875 0 C 1.554688 -0.0703125 1.238281 -0.203125 0.96875 -0.390625 C 0.707031 -0.585938 0.523438 -0.851562 0.421875 -1.1875 C 0.328125 -1.53125 0.34375 -1.957031 0.46875 -2.46875 L 1.3125 -2.234375 C 1.195312 -1.859375 1.164062 -1.546875 1.21875 -1.296875 C 1.269531 -1.046875 1.382812 -0.847656 1.5625 -0.703125 C 1.738281 -0.566406 1.957031 -0.46875 2.21875 -0.40625 C 2.476562 -0.351562 2.75 -0.328125 3.03125 -0.328125 C 3.539062 -0.328125 3.914062 -0.425781 4.15625 -0.625 C 4.394531 -0.820312 4.515625 -1.09375 4.515625 -1.4375 C 4.515625 -1.75 4.429688 -1.988281 4.265625 -2.15625 C 4.097656 -2.332031 3.878906 -2.472656 3.609375 -2.578125 C 3.347656 -2.679688 3.070312 -2.78125 2.78125 -2.875 C 2.300781 -3.039062 1.894531 -3.203125 1.5625 -3.359375 C 1.226562 -3.515625 0.972656 -3.695312 0.796875 -3.90625 C 0.628906 -4.125 0.546875 -4.390625 0.546875 -4.703125 C 0.546875 -5.222656 0.75 -5.601562 1.15625 -5.84375 C 1.570312 -6.09375 2.109375 -6.21875 2.765625 -6.21875 C 3.117188 -6.21875 3.457031 -6.179688 3.78125 -6.109375 C 4.101562 -6.035156 4.378906 -5.910156 4.609375 -5.734375 C 4.835938 -5.554688 4.988281 -5.320312 5.0625 -5.03125 C 5.144531 -4.75 5.113281 -4.390625 4.96875 -3.953125 L 4.125 -4.203125 C 4.257812 -4.503906 4.304688 -4.753906 4.265625 -4.953125 C 4.234375 -5.148438 4.144531 -5.304688 4 -5.421875 C 3.851562 -5.546875 3.671875 -5.632812 3.453125 -5.6875 C 3.234375 -5.738281 3.007812 -5.765625 2.78125 -5.765625 C 2.269531 -5.765625 1.910156 -5.671875 1.703125 -5.484375 C 1.503906 -5.304688 1.40625 -5.082031 1.40625 -4.8125 C 1.40625 -4.476562 1.550781 -4.21875 1.84375 -4.03125 C 2.144531 -3.851562 2.546875 -3.679688 3.046875 -3.515625 C 3.492188 -3.378906 3.890625 -3.226562 4.234375 -3.0625 C 4.585938 -2.90625 4.863281 -2.707031 5.0625 -2.46875 C 5.269531 -2.238281 5.375 -1.941406 5.375 -1.578125 C 5.375 -1.160156 5.269531 -0.828125 5.0625 -0.578125 C 4.863281 -0.328125 4.585938 -0.144531 4.234375 -0.03125 C 3.890625 0.0703125 3.5 0.125 3.0625 0.125 Z M 3.0625 0.125 "/></g></g></g></svg>